<svg width="24" height="24" viewBox="0 0 24 24" fill="none" xmlns="http://www.w3.org/2000/svg">
<g clip-path="url(#clip0_1679_4350)">
<path d="M12 -1.04907e-06C5.37259 -1.62846e-06 1.62846e-06 5.37258 1.04907e-06 12C4.69686e-07 18.6274 5.37258 24 12 24C18.6274 24 24 18.6274 24 12C24 5.37258 18.6274 -4.69686e-07 12 -1.04907e-06Z" fill="white"/>
<path d="M24.0004 11.9999C24.0004 6.84023 20.7439 2.44176 16.1743 0.746198L16.1743 23.2534C20.7439 21.5579 24.0004 17.1594 24.0004 11.9999Z" fill="#6DA544"/>
<path d="M7.15557e-05 11.9999C7.11047e-05 17.1594 3.25657 21.5579 7.82617 23.2534L7.82617 0.746153C3.25657 2.44176 7.20068e-05 6.84023 7.15557e-05 11.9999Z" fill="#6DA544"/>
</g>
<defs>
<clipPath id="clip0_1679_4350">
<rect width="24" height="24" fill="white" transform="translate(24 24) rotate(-180)"/>
</clipPath>
</defs>
</svg>
