<svg width="32" height="32" viewBox="0 0 32 32" fill="none" xmlns="http://www.w3.org/2000/svg">
<circle cx="16" cy="16" r="16" fill="#476885"/>
<path d="M14.8334 11.6666H12.5334C11.4133 11.6666 10.8532 11.6666 10.4254 11.8846C10.0491 12.0763 9.74311 12.3823 9.55136 12.7586C9.33337 13.1865 9.33337 13.7465 9.33337 14.8666L9.33337 15.6666C9.33337 16.2879 9.33338 16.5985 9.43487 16.8435C9.57019 17.1702 9.82976 17.4298 10.1565 17.5651C10.4015 17.6666 10.7121 17.6666 11.3334 17.6666V20.4999C11.3334 20.6547 11.3334 20.7321 11.3398 20.7973C11.4021 21.4303 11.903 21.9312 12.536 21.9935C12.6012 21.9999 12.6786 21.9999 12.8334 21.9999C12.9882 21.9999 13.0655 21.9999 13.1307 21.9935C13.7638 21.9312 14.2646 21.4303 14.327 20.7973C14.3334 20.7321 14.3334 20.6547 14.3334 20.4999V17.6666H14.8334C16.011 17.6666 17.4515 18.2979 18.5629 18.9037C19.2113 19.2571 19.5354 19.4339 19.7478 19.4079C19.9446 19.3837 20.0935 19.2953 20.2089 19.134C20.3334 18.96 20.3334 18.6119 20.3334 17.9157V11.4175C20.3334 10.7213 20.3334 10.3732 20.2089 10.1992C20.0935 10.0379 19.9446 9.94947 19.7478 9.92536C19.5354 9.89936 19.2113 10.0761 18.5629 10.4295C17.4515 11.0353 16.011 11.6666 14.8334 11.6666Z" fill="white"/>
<path d="M22.6667 13.3333V15.9999M14.8334 11.6666H12.5334C11.4133 11.6666 10.8532 11.6666 10.4254 11.8846C10.0491 12.0763 9.74311 12.3823 9.55136 12.7586C9.33337 13.1865 9.33337 13.7465 9.33337 14.8666L9.33337 15.6666C9.33337 16.2879 9.33338 16.5985 9.43487 16.8435C9.57019 17.1702 9.82976 17.4298 10.1565 17.5651C10.4015 17.6666 10.7121 17.6666 11.3334 17.6666V20.4999C11.3334 20.6547 11.3334 20.7321 11.3398 20.7973C11.4021 21.4303 11.903 21.9312 12.536 21.9935C12.6012 21.9999 12.6786 21.9999 12.8334 21.9999C12.9882 21.9999 13.0655 21.9999 13.1307 21.9935C13.7638 21.9312 14.2646 21.4303 14.327 20.7973C14.3334 20.7321 14.3334 20.6547 14.3334 20.4999V17.6666H14.8334C16.011 17.6666 17.4515 18.2979 18.5629 18.9037C19.2113 19.2571 19.5354 19.4339 19.7478 19.4079C19.9446 19.3837 20.0935 19.2953 20.2089 19.134C20.3334 18.96 20.3334 18.6119 20.3334 17.9157V11.4175C20.3334 10.7213 20.3334 10.3732 20.2089 10.1992C20.0935 10.0379 19.9446 9.94947 19.7478 9.92536C19.5354 9.89936 19.2113 10.0761 18.5629 10.4295C17.4515 11.0353 16.011 11.6666 14.8334 11.6666Z" stroke="white" stroke-width="0.7" stroke-linecap="round" stroke-linejoin="round"/>
</svg>
