<svg width="37" height="37" viewBox="0 0 37 37" fill="none" xmlns="http://www.w3.org/2000/svg">
<path d="M18.5 33.9168C27.0144 33.9168 33.9167 27.0146 33.9167 18.5002C33.9167 9.98577 27.0144 3.0835 18.5 3.0835C9.98565 3.0835 3.08337 9.98577 3.08337 18.5002C3.08337 27.0146 9.98565 33.9168 18.5 33.9168Z" fill="#EA872D"/>
<path d="M18.5 12.3335V18.5002M18.5 24.6668H18.5155M33.9167 18.5002C33.9167 27.0146 27.0144 33.9168 18.5 33.9168C9.98565 33.9168 3.08337 27.0146 3.08337 18.5002C3.08337 9.98577 9.98565 3.0835 18.5 3.0835C27.0144 3.0835 33.9167 9.98577 33.9167 18.5002Z" stroke="#FFF6ED" stroke-width="2" stroke-linecap="round" stroke-linejoin="round"/>
</svg>
