 <svg width="76" height="79" viewBox="0 0 76 79" fill="none" xmlns="http://www.w3.org/2000/svg">
  <path d="M8.8301 2.12216C10.6989 5.05939 12.8284 7.75431 14.9542 10.4859C19.6391 16.522 24.28 22.6314 29.3173 28.3811C30.852 30.1324 32.5924 31.6267 34.9348 32.1811C44.334 34.3841 52.3123 27.5733 53.4027 18.3724C54.4528 9.52033 48.4645 0.139519 38.9698 0.0991318C29.0909 0.0624163 19.2096 0.0293724 9.32576 0C8.07743 0 8.07743 0.701266 8.46662 1.46862C8.57623 1.69269 8.69756 1.91084 8.8301 2.12216ZM75.4687 77.1025C74.7601 76.438 74.0515 75.7734 73.3355 75.1199C69.1243 71.228 24.9666 35.614 5.23933 2.48564C5.12167 2.27469 5.01505 2.05778 4.9199 1.83577C4.89217 1.75641 4.84333 1.68611 4.77864 1.63242C4.71395 1.57873 4.63586 1.54368 4.55275 1.53104C4.18559 1.47596 4.06443 1.77703 3.91757 2.01201C3.33379 2.92622 3.09147 3.97629 2.8161 5.00065C1.11985 11.4479 0.385539 18.0346 0.10283 24.6655C-0.0801095 28.6661 -0.0224847 32.6741 0.275392 36.6678C0.690277 41.9071 1.53473 47.0582 3.28239 52.0295C4.93092 56.7218 7.32109 60.9661 11.1909 64.2117C13.5811 66.1771 16.4035 67.5474 19.4262 68.21C20.065 68.3606 20.1605 68.2431 19.9402 67.6006C19.9035 67.4867 19.8594 67.3766 19.819 67.2664C17.7679 61.9647 15.7143 56.6642 13.6582 51.365C13.0634 49.8266 12.4613 48.2919 11.8628 46.7535C12.1078 46.898 12.3065 47.1094 12.4356 47.363C14.3301 50.6967 16.2062 54.0452 18.1191 57.3679C20.1458 60.8963 22.3965 64.2521 25.5099 66.936C28.2493 69.294 31.4673 71.0301 34.9422 72.0248C37.4165 72.7752 39.9669 73.2468 42.5459 73.431C42.7515 73.431 42.9975 73.5742 43.1444 73.3759C43.2913 73.1776 43.0856 72.9794 42.9792 72.8068C41.8777 71.0481 40.7505 69.2858 39.6234 67.5345L30.6978 53.6634C28.1008 49.6393 25.5173 45.6129 22.9472 41.584L19.8961 36.8109L20.0283 36.7375C20.1201 36.844 20.2156 36.9431 20.3 37.0533C22.8701 40.2585 25.2529 43.5776 27.6945 46.8673C30.797 51.0529 33.9104 55.2238 37.303 59.1854C39.1387 61.3259 41.0149 63.4297 43.0342 65.394C45.8072 68.1605 48.8571 70.6346 52.136 72.7774C54.289 74.1604 56.5711 75.331 58.9504 76.2728C61.6424 77.339 64.479 77.9962 67.3656 78.2223C70.0092 78.4315 72.6691 78.2671 75.2668 77.734C75.4467 77.6973 75.678 77.7083 75.7294 77.477C75.7808 77.2457 75.5825 77.1943 75.4687 77.1025Z" fill="#014345"/>
  </svg>